<?xml version="1.0" encoding="UTF-8" standalone="no"?>
<svg
   xmlns:dc="http://purl.org/dc/elements/1.1/"
   xmlns:cc="http://creativecommons.org/ns#"
   xmlns:rdf="http://www.w3.org/1999/02/22-rdf-syntax-ns#"
   xmlns:svg="http://www.w3.org/2000/svg"
   xmlns="http://www.w3.org/2000/svg"
   version="1.1"
   id="svg4714"
   viewBox="0 0 247.32322 247.32628"
   height="69.800972mm"
   width="69.80011mm">
  <defs
     id="defs4716" />
  <metadata
     id="metadata4719">
    <rdf:RDF>
      <cc:Work
         rdf:about="">
        <dc:format>image/svg+xml</dc:format>
        <dc:type
           rdf:resource="http://purl.org/dc/dcmitype/StillImage" />
        <dc:title></dc:title>
      </cc:Work>
    </rdf:RDF>
  </metadata>
  <g
     transform="translate(-267.76696,-352.23053)"
     id="layer1">
    <g
       id="g5308">
      <path
         id="path6347"
         d="M 391.42717,352.23053 A 123.66265,123.66265 0 0 0 267.76696,475.89359 123.66265,123.66265 0 0 0 391.42717,599.5568 123.66265,123.66265 0 0 0 515.09018,475.89359 123.66265,123.66265 0 0 0 391.42717,352.23053 Z m 0,9.86446 a 113.79884,113.79884 0 0 1 113.79855,113.7986 113.79884,113.79884 0 0 1 -113.79855,113.7986 113.79884,113.79884 0 0 1 -113.7986,-113.7986 113.79884,113.79884 0 0 1 113.7986,-113.7986 z"
         style="fill:#003399;fill-opacity:1;stroke:none;stroke-width:17.71653557;stroke-miterlimit:4;stroke-dasharray:none;stroke-opacity:1" />
      <path
         style="fill:#003399;fill-opacity:1;stroke:none;stroke-width:0.2;stroke-miterlimit:4;stroke-dasharray:none;stroke-opacity:1"
         d="m 463.63697,401.20993 -8.04706,6.41952 a 93.796706,93.796706 0 0 1 16.6903,21.0031 l 7.98274,-6.36701 a 103.89351,103.89351 0 0 0 -16.62598,-21.05561 z"
         id="path6349" />
      <path
         id="path6351"
         d="m 447.95111,413.54092 -8.04706,6.41952 a 93.796706,93.796706 0 0 1 16.69015,21.00309 l 7.98274,-6.36701 a 103.89351,103.89351 0 0 0 -16.62583,-21.0556 z"
         style="fill:#003399;fill-opacity:1;stroke:none;stroke-width:0.2;stroke-miterlimit:4;stroke-dasharray:none;stroke-opacity:1" />
      <path
         id="path6353"
         d="m 372.01592,397.22298 0,0 a 93.796706,93.796706 0 0 1 -80.46197,49.97426 103.99975,103.99975 0 0 0 -2.39017,10.26779 103.89351,103.89351 0 0 0 0.19869,0 103.89351,103.89351 0 0 0 53.14751,-14.84059 l 0,75.78385 0,4.34211 a 103.89351,103.89351 0 0 0 37.58808,-10.6213 103.89351,103.89351 0 0 0 81.64537,40.24699 103.99975,103.99975 0 0 0 10.25316,-10.84048 93.796706,93.796706 0 0 1 -10.13627,0.66036 93.796706,93.796706 0 0 1 -72.93209,-35.02551 103.89351,103.89351 0 0 0 48.19186,-77.12505 103.99975,103.99975 0 0 0 -9.9931,-3.80159 l -63.3656,0 a 103.99975,103.99975 0 0 0 -0.009,0 l -0.30387,0 a 103.89351,103.89351 0 0 0 17.50253,-23.86353 103.99975,103.99975 0 0 0 -8.93535,-5.16315 z m -19.62971,38.9001 73.58076,0 a 93.796706,93.796706 0 0 1 -73.58076,74.93649 l 0,-74.93649 z"
         style="fill:#003399;fill-opacity:1;stroke:none;stroke-width:0.2;stroke-miterlimit:4;stroke-dasharray:none;stroke-opacity:1" />
    </g>
  </g>
</svg>
